<mxfile modified="2024-10-31T21:53:42.500Z" host="app.diagrams.net" agent="Mozilla/5.0 (Macintosh; Intel Mac OS X 10_15_7) AppleWebKit/537.36 (KHTML, like Gecko) Chrome/130.0.0.0 Safari/537.36" etag="4nHgt46kNgZ3yORUNmyM" version="24.4.13" type="github">
  <diagram id="Ht1M8jgEwFfnCIfOTk4-" name="Page-1">
    <mxGraphModel dx="1366" dy="1508" grid="1" gridSize="10" guides="1" tooltips="1" connect="1" arrows="1" fold="1" page="1" pageScale="1" pageWidth="1169" pageHeight="827" math="0" shadow="0">
      <root>
        <mxCell id="0" />
        <mxCell id="1" parent="0" />
        <mxCell id="UEzPUAAOIrF-is8g5C7q-175" value="AWS Cloud" style="points=[[0,0],[0.25,0],[0.5,0],[0.75,0],[1,0],[1,0.25],[1,0.5],[1,0.75],[1,1],[0.75,1],[0.5,1],[0.25,1],[0,1],[0,0.75],[0,0.5],[0,0.25]];outlineConnect=0;gradientColor=none;html=1;whiteSpace=wrap;fontSize=12;fontStyle=0;shape=mxgraph.aws4.group;grIcon=mxgraph.aws4.group_aws_cloud_alt;strokeColor=#232F3E;fillColor=none;verticalAlign=top;align=left;spacingLeft=30;fontColor=#232F3E;dashed=0;labelBackgroundColor=#ffffff;container=1;pointerEvents=0;collapsible=0;recursiveResize=0;" parent="1" vertex="1">
          <mxGeometry x="270" y="-660" width="880" height="445.3" as="geometry" />
        </mxCell>
        <mxCell id="4ki6s9rbF5oXUOvjLeyN-1" value="&lt;font style=&quot;font-size: 16px;&quot;&gt;&lt;span style=&quot;&quot;&gt;AWS&lt;/span&gt;&lt;br&gt;&lt;font style=&quot;font-size: 16px;&quot;&gt;Budgets&lt;/font&gt;&lt;/font&gt;" style="sketch=0;points=[[0,0,0],[0.25,0,0],[0.5,0,0],[0.75,0,0],[1,0,0],[0,1,0],[0.25,1,0],[0.5,1,0],[0.75,1,0],[1,1,0],[0,0.25,0],[0,0.5,0],[0,0.75,0],[1,0.25,0],[1,0.5,0],[1,0.75,0]];outlineConnect=0;fontColor=#232F3E;fillColor=#7AA116;strokeColor=#ffffff;dashed=0;verticalLabelPosition=bottom;verticalAlign=top;align=center;html=1;fontSize=12;fontStyle=0;aspect=fixed;shape=mxgraph.aws4.resourceIcon;resIcon=mxgraph.aws4.budgets_2;" vertex="1" parent="UEzPUAAOIrF-is8g5C7q-175">
          <mxGeometry x="247" y="50" width="78" height="78" as="geometry" />
        </mxCell>
        <mxCell id="4ki6s9rbF5oXUOvjLeyN-23" value="&lt;font style=&quot;font-size: 16px;&quot;&gt;Recipient&amp;nbsp;&lt;/font&gt;&lt;div style=&quot;font-size: 16px;&quot;&gt;&lt;font style=&quot;font-size: 16px;&quot;&gt;List&lt;/font&gt;&lt;/div&gt;&lt;div style=&quot;font-size: 14px;&quot;&gt;&lt;br style=&quot;font-size: 14px;&quot;&gt;&lt;/div&gt;" style="verticalLabelPosition=bottom;html=1;verticalAlign=top;align=center;strokeColor=none;fillColor=#00BEF2;shape=mxgraph.azure.message;pointerEvents=1;fontSize=14;" vertex="1" parent="UEzPUAAOIrF-is8g5C7q-175">
          <mxGeometry x="252.67" y="280" width="66.67" height="50" as="geometry" />
        </mxCell>
        <mxCell id="4ki6s9rbF5oXUOvjLeyN-24" value="&lt;font style=&quot;font-size: 16px;&quot;&gt;Simple&amp;nbsp;&lt;/font&gt;&lt;div&gt;&lt;font style=&quot;font-size: 16px;&quot;&gt;Notification&amp;nbsp;&lt;/font&gt;&lt;/div&gt;&lt;div&gt;&lt;font style=&quot;font-size: 16px;&quot;&gt;Service&lt;/font&gt;&lt;div style=&quot;font-size: 16px;&quot;&gt;&lt;font style=&quot;font-size: 16px;&quot;&gt;(SNS)&lt;/font&gt;&lt;/div&gt;&lt;/div&gt;" style="sketch=0;points=[[0,0,0],[0.25,0,0],[0.5,0,0],[0.75,0,0],[1,0,0],[0,1,0],[0.25,1,0],[0.5,1,0],[0.75,1,0],[1,1,0],[0,0.25,0],[0,0.5,0],[0,0.75,0],[1,0.25,0],[1,0.5,0],[1,0.75,0]];outlineConnect=0;fontColor=#232F3E;fillColor=#E7157B;strokeColor=#ffffff;dashed=0;verticalLabelPosition=bottom;verticalAlign=top;align=center;html=1;fontSize=12;fontStyle=0;aspect=fixed;shape=mxgraph.aws4.resourceIcon;resIcon=mxgraph.aws4.sns;" vertex="1" parent="UEzPUAAOIrF-is8g5C7q-175">
          <mxGeometry x="410" y="166" width="78" height="78" as="geometry" />
        </mxCell>
        <mxCell id="4ki6s9rbF5oXUOvjLeyN-28" value="" style="edgeStyle=orthogonalEdgeStyle;html=1;endArrow=block;elbow=vertical;startArrow=none;endFill=1;strokeColor=#545B64;rounded=0;dashed=1;" edge="1" parent="UEzPUAAOIrF-is8g5C7q-175">
          <mxGeometry width="100" relative="1" as="geometry">
            <mxPoint x="285.5" y="190" as="sourcePoint" />
            <mxPoint x="285.5" y="260" as="targetPoint" />
          </mxGeometry>
        </mxCell>
        <mxCell id="4ki6s9rbF5oXUOvjLeyN-5" value="IAM&amp;nbsp;&lt;br&gt;Permissions" style="sketch=0;outlineConnect=0;fontColor=#232F3E;gradientColor=none;fillColor=#DD344C;strokeColor=none;dashed=0;verticalLabelPosition=bottom;verticalAlign=top;align=center;html=1;fontSize=12;fontStyle=0;aspect=fixed;pointerEvents=1;shape=mxgraph.aws4.permissions;" vertex="1" parent="UEzPUAAOIrF-is8g5C7q-175">
          <mxGeometry x="60" y="50" width="62" height="78" as="geometry" />
        </mxCell>
        <mxCell id="4ki6s9rbF5oXUOvjLeyN-34" value="" style="edgeStyle=none;orthogonalLoop=1;jettySize=auto;html=1;rounded=0;" edge="1" parent="UEzPUAAOIrF-is8g5C7q-175">
          <mxGeometry width="100" relative="1" as="geometry">
            <mxPoint x="134" y="84.5" as="sourcePoint" />
            <mxPoint x="234" y="84.5" as="targetPoint" />
            <Array as="points" />
          </mxGeometry>
        </mxCell>
        <mxCell id="4ki6s9rbF5oXUOvjLeyN-35" value="&lt;font style=&quot;font-size: 16px;&quot;&gt;Elastic Compute Cloud&lt;/font&gt;&lt;div&gt;&lt;font style=&quot;font-size: 16px;&quot;&gt;(EC2)&lt;/font&gt;&lt;/div&gt;" style="sketch=0;points=[[0,0,0],[0.25,0,0],[0.5,0,0],[0.75,0,0],[1,0,0],[0,1,0],[0.25,1,0],[0.5,1,0],[0.75,1,0],[1,1,0],[0,0.25,0],[0,0.5,0],[0,0.75,0],[1,0.25,0],[1,0.5,0],[1,0.75,0]];outlineConnect=0;fontColor=#232F3E;fillColor=#ED7100;strokeColor=#ffffff;dashed=0;verticalLabelPosition=bottom;verticalAlign=top;align=center;html=1;fontSize=12;fontStyle=0;aspect=fixed;shape=mxgraph.aws4.resourceIcon;resIcon=mxgraph.aws4.ec2;" vertex="1" parent="UEzPUAAOIrF-is8g5C7q-175">
          <mxGeometry x="740" y="166" width="78" height="78" as="geometry" />
        </mxCell>
        <mxCell id="4ki6s9rbF5oXUOvjLeyN-45" value="" style="endArrow=none;dashed=1;html=1;dashPattern=1 3;strokeWidth=2;rounded=0;" edge="1" parent="UEzPUAAOIrF-is8g5C7q-175">
          <mxGeometry width="50" height="50" relative="1" as="geometry">
            <mxPoint x="659" y="203" as="sourcePoint" />
            <mxPoint x="726" y="203" as="targetPoint" />
          </mxGeometry>
        </mxCell>
        <mxCell id="4ki6s9rbF5oXUOvjLeyN-36" value="&lt;font style=&quot;font-size: 51px;&quot;&gt;$&lt;font color=&quot;#33ff33&quot;&gt;&amp;gt;&lt;/font&gt;&amp;nbsp;&lt;/font&gt;" style="text;html=1;align=center;verticalAlign=middle;resizable=0;points=[];autosize=1;strokeColor=none;fillColor=none;" vertex="1" parent="UEzPUAAOIrF-is8g5C7q-175">
          <mxGeometry x="573" y="166" width="100" height="70" as="geometry" />
        </mxCell>
        <mxCell id="4ki6s9rbF5oXUOvjLeyN-46" value="" style="endArrow=none;dashed=1;html=1;dashPattern=1 3;strokeWidth=2;rounded=0;" edge="1" parent="UEzPUAAOIrF-is8g5C7q-175">
          <mxGeometry width="50" height="50" relative="1" as="geometry">
            <mxPoint x="507" y="203.5" as="sourcePoint" />
            <mxPoint x="574" y="203.5" as="targetPoint" />
          </mxGeometry>
        </mxCell>
        <mxCell id="4ki6s9rbF5oXUOvjLeyN-47" value="&lt;div&gt;&lt;br&gt;&lt;/div&gt;Budget&lt;div&gt;Threshold&amp;nbsp;&lt;/div&gt;" style="text;html=1;align=center;verticalAlign=middle;resizable=0;points=[];autosize=1;strokeColor=none;fillColor=none;" vertex="1" parent="UEzPUAAOIrF-is8g5C7q-175">
          <mxGeometry x="563" y="210" width="80" height="60" as="geometry" />
        </mxCell>
        <mxCell id="4ki6s9rbF5oXUOvjLeyN-26" value="" style="edgeStyle=orthogonalEdgeStyle;html=1;endArrow=none;elbow=vertical;startArrow=block;startFill=1;strokeColor=#545B64;rounded=0;dashed=1;" edge="1" parent="1" target="4ki6s9rbF5oXUOvjLeyN-24">
          <mxGeometry width="100" relative="1" as="geometry">
            <mxPoint x="600" y="-525" as="sourcePoint" />
            <mxPoint x="641" y="-526" as="targetPoint" />
          </mxGeometry>
        </mxCell>
        <mxCell id="4ki6s9rbF5oXUOvjLeyN-11" value="Admin" style="sketch=0;pointerEvents=1;shadow=0;dashed=0;html=1;strokeColor=none;labelPosition=center;verticalLabelPosition=bottom;verticalAlign=top;align=center;fillColor=#515151;shape=mxgraph.mscae.system_center.admin_console" vertex="1" parent="1">
          <mxGeometry x="124.52" y="-600" width="90.97" height="65.5" as="geometry" />
        </mxCell>
        <mxCell id="4ki6s9rbF5oXUOvjLeyN-33" value="" style="edgeStyle=none;orthogonalLoop=1;jettySize=auto;html=1;rounded=0;" edge="1" parent="1">
          <mxGeometry width="100" relative="1" as="geometry">
            <mxPoint x="221" y="-575.75" as="sourcePoint" />
            <mxPoint x="321" y="-575.75" as="targetPoint" />
            <Array as="points" />
          </mxGeometry>
        </mxCell>
      </root>
    </mxGraphModel>
  </diagram>
</mxfile>
